# File created by Blade
# Date/Time:  Thu Jan 22 16:36:26 2015
# Frame Rate: 120.000 fps
#------------------------------------------------------
:FULLY-SPECIFIED
:DEGREES
3451
root 3.651577 18.340651 39.877735 8.262936 5.695330 -3.315424
RightUpLeg -91.397433 -0.857385 1.793569
RightLeg 112.438068 -0.000000 -0.000000
RightFoot -34.976921 -2.133828 20.187184
RightToeBase -351.447515 -0.000000 -0.000000
LeftUpLeg 13.782128 -14.700530 7.314093
LeftLeg 136.220430 -0.000000 -0.000000
LeftFoot 33.673977 6.157730 -20.576839
LeftToeBase 18.332823 -0.000000 -0.000000
Spine 6.410608 21.242106 -8.647478
RightShoulder 11.184527 -17.904597 -23.570025
RightArm 22.728621 -30.947617 41.154451
RightForeArm -16.043420 -0.000000 79.349246
RightHand 20.147600 0.000000 -31.020688
RightHandThumb1 -24.326973 -0.000000 -32.862282
LeftShoulder -27.535485 36.614893 -8.551663
LeftArm 28.012688 2.723915 -63.298375
LeftForeArm 31.467999 -0.000000 6.568062
LeftHand -10.822331 -0.000000 -28.990426
LeftHandThumb1 -26.253704 0.000000 33.147579
Head 17.595061 -12.269848 3.318422
3452
root 3.664920 18.340381 39.895366 8.264158 5.649198 -3.391274
RightUpLeg -91.363151 -0.863686 1.831608
RightLeg 112.443084 -0.000000 -0.000000
RightFoot -34.902630 -1.946213 20.402382
RightToeBase -352.018651 -0.000000 -0.000000
LeftUpLeg 13.842081 -14.776574 7.311224
LeftLeg 136.211254 -0.000000 -0.000000
LeftFoot 33.917881 5.762809 -20.361575
LeftToeBase 17.863090 -0.000000 -0.000000
Spine 6.197851 21.257052 -8.558913
RightShoulder 11.125465 -17.896292 -23.506984
RightArm 22.721711 -30.967855 41.473734
RightForeArm -16.155056 -0.000000 78.956415
RightHand 20.295188 -0.000000 -31.114504
RightHandThumb1 -24.326973 -0.000000 -32.862282
LeftShoulder -27.678122 36.713690 -8.672426
LeftArm 28.264671 2.711082 -63.406912
LeftForeArm 31.891040 -0.000000 6.424406
LeftHand -11.287133 0.000000 -29.138218
LeftHandThumb1 -26.253704 0.000000 33.147579
Head 17.755543 -12.383952 3.356447
3453
root 3.677828 18.340477 39.913608 8.280302 5.617488 -3.509386
RightUpLeg -91.340165 -0.875283 1.943437
RightLeg 112.449469 -0.000000 -0.000000
RightFoot -34.984272 -1.969265 20.272645
RightToeBase -351.619827 -0.000000 -0.000000
LeftUpLeg 13.892069 -14.832324 7.347168
LeftLeg 136.198817 -0.000000 -0.000000
LeftFoot 34.013700 5.436458 -20.568156
LeftToeBase 17.906872 -0.000000 -0.000000
Spine 5.972713 21.267773 -8.405943
RightShoulder 11.021370 -17.916531 -23.430478
RightArm 22.716576 -30.994701 41.768918
RightForeArm -16.228469 -0.000000 78.614388
RightHand 20.309242 -0.000000 -31.130552
RightHandThumb1 -24.326973 -0.000000 -32.862282
LeftShoulder -27.844236 36.766159 -8.846539
LeftArm 28.506575 2.490849 -63.542962
LeftForeArm 32.387965 0.000000 6.188982
LeftHand -11.632451 -0.000000 -29.311692
LeftHandThumb1 -26.253704 0.000000 33.147579
Head 17.858050 -12.479437 3.383178
3454
root 3.694640 18.340808 39.933642 8.267724 5.579677 -3.621198
RightUpLeg -91.284692 -0.902365 2.026826
RightLeg 112.439696 -0.000000 -0.000000
RightFoot -34.929248 -1.706153 20.454299
RightToeBase -351.767131 -0.000000 -0.000000
LeftUpLeg 13.965829 -14.754821 7.387722
LeftLeg 136.150877 -0.000000 -0.000000
LeftFoot 34.007068 5.333889 -20.658264
LeftToeBase 18.010817 -0.000000 -0.000000
Spine 5.777138 21.295196 -8.219373
RightShoulder 10.942409 -17.947072 -23.399089
RightArm 22.630657 -30.970622 42.151766
RightForeArm -16.363927 -0.000000 78.332532
RightHand 20.208717 -0.000000 -30.977961
RightHandThumb1 -24.326973 -0.000000 -32.862282
LeftShoulder -27.919594 36.719604 -8.955419
LeftArm 28.633193 2.401079 -63.638982
LeftForeArm 32.677953 0.000000 5.818138
LeftHand -11.807432 0.000000 -29.540274
LeftHandThumb1 -26.253704 0.000000 33.147579
Head 17.946919 -12.588582 3.361932
3455
root 3.711330 18.342658 39.952548 8.254490 5.532374 -3.738929
RightUpLeg -91.227223 -0.918794 2.119730
RightLeg 112.432731 -0.000000 -0.000000
RightFoot -34.928105 -1.612212 20.486506
RightToeBase -351.625659 -0.000000 -0.000000
LeftUpLeg 14.041198 -14.594662 7.444806
LeftLeg 136.109058 -0.000000 -0.000000
LeftFoot 33.884203 5.300630 -20.641711
LeftToeBase 17.824219 -0.000000 -0.000000
Spine 5.585275 21.351359 -8.028624
RightShoulder 10.845543 -18.030029 -23.345980
RightArm 22.566129 -30.922929 42.491339
RightForeArm -16.286428 -0.000000 78.054931
RightHand 20.368525 -0.000000 -31.058468
RightHandThumb1 -24.326973 -0.000000 -32.862282
LeftShoulder -27.914034 36.603094 -8.979731
LeftArm 28.626862 2.350816 -63.739694
LeftForeArm 32.991215 0.000000 5.459268
LeftHand -11.886638 -0.000000 -30.008652
LeftHandThumb1 -26.253704 0.000000 33.147579
Head 18.020855 -12.685434 3.356241
